<mxfile host="app.diagrams.net" agent="Mozilla/5.0 (Windows NT 10.0; Win64; x64) AppleWebKit/537.36 (KHTML, like Gecko) Chrome/127.0.0.0 Safari/537.36" version="24.7.7">
  <diagram name="Page-1" id="IDSjLUOv8QDUuvwaUM4B">
    <mxGraphModel dx="1259" dy="662" grid="1" gridSize="10" guides="1" tooltips="1" connect="1" arrows="1" fold="1" page="1" pageScale="1" pageWidth="850" pageHeight="1100" math="0" shadow="0">
      <root>
        <mxCell id="0" />
        <mxCell id="1" parent="0" />
        <mxCell id="dt_a5OVuirA1Pv5Ag5L1-1" value="&lt;h1 style=&quot;margin-top: 0px;&quot;&gt;Learn to Play Game&lt;/h1&gt;&lt;p&gt;The goal of this project is to create a game that people can use to learn how to play Skirmish&lt;/p&gt;" style="text;html=1;whiteSpace=wrap;overflow=hidden;rounded=0;" vertex="1" parent="1">
          <mxGeometry x="580" width="260" height="110" as="geometry" />
        </mxCell>
        <mxCell id="dt_a5OVuirA1Pv5Ag5L1-2" value="&lt;h2 style=&quot;margin-top: 0px;&quot;&gt;Game Overview&lt;/h2&gt;&lt;p&gt;An overview of the states of the program that will need to be created.&lt;/p&gt;&lt;p&gt;&lt;/p&gt;&lt;ol&gt;&lt;li&gt;&lt;span style=&quot;background-color: initial;&quot;&gt;Generate game components state&lt;/span&gt;&lt;/li&gt;&lt;ol&gt;&lt;li&gt;&lt;span style=&quot;background-color: initial;&quot;&gt;Start Here&lt;/span&gt;&lt;/li&gt;&lt;li&gt;&lt;span style=&quot;background-color: initial;&quot;&gt;Go to Start Game State&lt;/span&gt;&lt;br&gt;&lt;/li&gt;&lt;/ol&gt;&lt;li&gt;Start Game State&lt;/li&gt;&lt;ol&gt;&lt;li&gt;get Player_ID[]s&lt;/li&gt;&lt;li&gt;create player_order[player_IDs]&amp;nbsp;&lt;/li&gt;&lt;li&gt;set player_ID.insight = true for first player in player_order[]&lt;/li&gt;&lt;li&gt;&lt;span style=&quot;background-color: initial;&quot;&gt;Go to First Turn Scene&lt;/span&gt;&lt;/li&gt;&lt;li&gt;Create battlefield Scene&lt;/li&gt;&lt;ol&gt;&lt;li&gt;&lt;span style=&quot;background-color: initial;&quot;&gt;For each playerID in player_order:&lt;/span&gt;&lt;/li&gt;&lt;ol&gt;&lt;li&gt;&lt;span style=&quot;background-color: initial;&quot;&gt;CreateBattlefield(Player_ID)&lt;/span&gt;&lt;/li&gt;&lt;ol&gt;&lt;li&gt;&lt;span style=&quot;background-color: initial;&quot;&gt;Create Player_ID.Command_Zone&lt;/span&gt;&lt;/li&gt;&lt;ol&gt;&lt;li&gt;&lt;span style=&quot;background-color: initial;&quot;&gt;Create Player_ID.Command_Zone.Strategy_Card_Zone(Player_ID.Strategy_Card)&lt;/span&gt;&lt;/li&gt;&lt;li&gt;&lt;br&gt;&lt;/li&gt;&lt;/ol&gt;&lt;li&gt;&lt;span style=&quot;background-color: initial;&quot;&gt;Create Player_ID.Patrol.Zone&lt;/span&gt;&lt;/li&gt;&lt;li&gt;&lt;span style=&quot;background-color: initial;&quot;&gt;Create Player_ID.&lt;/span&gt;&lt;/li&gt;&lt;/ol&gt;&lt;li&gt;&lt;span style=&quot;background-color: initial;&quot;&gt;place HQ decks&lt;/span&gt;&lt;/li&gt;&lt;li&gt;place strategy card&lt;/li&gt;&lt;/ol&gt;&lt;/ol&gt;&lt;/ol&gt;&lt;li&gt;Start Turn Scene (skipped on the first turn)&lt;/li&gt;&lt;ol&gt;&lt;li&gt;&lt;b&gt;Untap Step&lt;/b&gt;&lt;/li&gt;&lt;ol&gt;&lt;li&gt;Set tapped value to 0 for each permanent that has attackedlastturn=0&amp;nbsp;&lt;/li&gt;&lt;/ol&gt;&lt;li&gt;&lt;b&gt;Draw Step&lt;/b&gt;&lt;/li&gt;&lt;ol&gt;&lt;li&gt;For each player, draw().&lt;/li&gt;&lt;/ol&gt;&lt;/ol&gt;&lt;/ol&gt;&lt;p&gt;&lt;/p&gt;&lt;ol&gt;&lt;li&gt;&lt;/li&gt;&lt;li&gt;Play Cards Phase&lt;/li&gt;&lt;ol&gt;&lt;li&gt;&lt;b&gt;Deploy Step&lt;/b&gt;&lt;/li&gt;&lt;ol&gt;&lt;li&gt;For each PlayerID in Playerorder, while that PlayerID.cardsdeployed&amp;lt;4:&lt;/li&gt;&lt;ol&gt;&lt;li&gt;hand_deployed=1;&lt;/li&gt;&lt;li&gt;check for each patrolzone[card], does cardability.trigger() = beginningdeploy.&lt;/li&gt;&lt;li&gt;Player Input: pass(), if(hand!=0 choose a card in hand, choose a card in build zone, PlayerID.pass()&lt;/li&gt;&lt;ol&gt;&lt;li&gt;playerID.end_this_step = 1&lt;/li&gt;&lt;li&gt;move to next player in loop.&lt;/li&gt;&lt;/ol&gt;&lt;li&gt;choose a card in hand:&lt;br&gt;&lt;/li&gt;&lt;ol&gt;&lt;li&gt;if(playerID.handdeployed!=0 and card.deploy(deployeffect)=true and card=requirements() = true) then card.deploy(deployeffect)&lt;/li&gt;&lt;ol&gt;&lt;li&gt;playerID.handdeployed = handdeployed++&lt;/li&gt;&lt;li&gt;card.deploy(deployeffect)&lt;/li&gt;&lt;/ol&gt;&lt;li&gt;if card.deploy(discardeffect) = true then card.deploy(discardeffect)&lt;/li&gt;&lt;/ol&gt;&lt;li&gt;choose a card in a build zone:&lt;/li&gt;&lt;ol&gt;&lt;li&gt;card.deploy()&lt;/li&gt;&lt;/ol&gt;&lt;li&gt;choose a card in patrol zone:&lt;/li&gt;&lt;ol&gt;&lt;li&gt;card.ability()&lt;/li&gt;&lt;/ol&gt;&lt;li&gt;For each player#,&lt;/li&gt;&lt;ol&gt;&lt;li&gt;choose card in hand:&lt;/li&gt;&lt;ol&gt;&lt;li&gt;if card.discardability() then card.discardability()&lt;/li&gt;&lt;/ol&gt;&lt;li&gt;&lt;span style=&quot;background-color: initial;&quot;&gt;&amp;nbsp;choose card in patrol zone:&lt;/span&gt;&lt;/li&gt;&lt;ol&gt;&lt;li&gt;card.ability()&lt;/li&gt;&lt;/ol&gt;&lt;li&gt;when (playerpassedinit = 1) = 1 end loop.&lt;/li&gt;&lt;/ol&gt;&lt;/ol&gt;&lt;li&gt;For each players: Each player may activate abilities until both players pass without activating abilities.&lt;/li&gt;&lt;/ol&gt;&lt;li&gt;&lt;br&gt;&lt;/li&gt;&lt;/ol&gt;&lt;/ol&gt;" style="text;html=1;whiteSpace=wrap;overflow=hidden;rounded=0;" vertex="1" parent="1">
          <mxGeometry x="10" y="10" width="830" height="1270" as="geometry" />
        </mxCell>
      </root>
    </mxGraphModel>
  </diagram>
</mxfile>
